<svg width="91" height="84" viewBox="0 0 91 84" fill="none" xmlns="http://www.w3.org/2000/svg">
<rect x="17.591" y="68.0096" width="72.4822" height="37.2682" transform="rotate(-68.5 17.591 68.0096)" fill="#548B56" stroke="#426143" stroke-width="0.880351"/>
<rect x="51.3886" y="65.0799" width="54.5817" height="3.81485" rx="1.90743" transform="rotate(-68.5 51.3886 65.0799)" fill="#486849"/>
<circle cx="39.3254" cy="56.0702" r="12.4716" transform="rotate(-68.5 39.3254 56.0702)" fill="#486849"/>
<circle cx="47.995" cy="10.4411" r="4.40175" transform="rotate(-68.5 47.995 10.4411)" fill="#486849"/>
<rect x="0.570872" y="69.7703" width="72.4822" height="37.2682" transform="rotate(-68.5 0.570872 69.7703)" fill="#548B56" stroke="#426143" stroke-width="0.880351"/>
<rect x="34.3684" y="66.8406" width="54.5817" height="3.81485" rx="1.90743" transform="rotate(-68.5 34.3684 66.8406)" fill="#486849"/>
<circle cx="22.3053" cy="57.8309" r="12.4716" transform="rotate(-68.5 22.3053 57.8309)" fill="#486849"/>
<circle cx="30.9749" cy="12.2019" r="4.40175" transform="rotate(-68.5 30.9749 12.2019)" fill="#486849"/>
<g opacity="0.2" filter="url(#filter0_f_5_11)">
<ellipse cx="46.5" cy="25" rx="28.5" ry="4" fill="black"/>
</g>
<path d="M0.29345 26.704C0.29345 26.0557 0.818978 25.5302 1.46725 25.5302H82.1661C85.2454 25.5302 87.7416 28.0265 87.7416 31.1058V78.0578C87.7416 81.1371 85.2454 83.6334 82.1661 83.6334H1.46725C0.818982 83.6334 0.29345 83.1078 0.29345 82.4596V26.704Z" fill="#56422F" stroke="#1B1713" stroke-width="0.586901"/>
<path d="M77.0516 80.4054V80.9923H71.518V80.4054H65.9844V80.9923H60.4507V80.4054H54.9171V80.9923H49.3835V80.4054H43.8498V80.9923H38.3162V80.4054H32.7826V80.9923H27.2489V80.4054H21.7153V80.9923H16.1817V80.4054H10.648V80.9923H5.11441V80.4054H2.9345V78.3512H2.3476V73.0691H2.9345V67.787H2.3476V62.5049H2.9345V57.2228H2.3476V51.9407H2.9345V46.6586H2.3476V41.3765H2.9345V36.0944H2.3476V30.8123H2.9345V28.7581H5.11441V28.1712H10.648V28.7581H16.1817V28.1712H21.7153V28.7581H27.2489V28.1712H32.7826V28.7581H38.3162V28.1712H43.8498V28.7581H49.3835V28.1712H54.9171V28.7581H60.4507V28.1712H65.9844V28.7581H71.518V28.1712H77.0516V28.7581H79.8185C80.5358 28.7581 81.2182 28.9008 81.8402 29.1587L82.065 28.6166C83.4997 29.2115 84.6472 30.359 85.2421 31.7936L84.7 32.0185C84.9579 32.6404 85.1006 33.3229 85.1006 34.0402V36.6079H85.6875V41.7433H85.1006V46.8787H85.6875V52.0141H85.1006V57.1494H85.6875V62.2848H85.1006V67.4202H85.6875V72.5556H85.1006V75.1233C85.1006 75.8405 84.9579 76.523 84.7 77.145L85.2421 77.3698C84.6472 78.8045 83.4997 79.952 82.065 80.5469L81.8402 80.0048C81.2182 80.2627 80.5358 80.4054 79.8185 80.4054H77.0516Z" stroke="#1B1713" stroke-width="1.1738" stroke-dasharray="5.87 5.87"/>
<path d="M62.6516 53.408C62.6516 50.2476 65.2136 47.6857 68.3739 47.6857H88.9154C89.6447 47.6857 90.2359 48.2769 90.2359 49.0062V60.1573C90.2359 60.8866 89.6447 61.4778 88.9154 61.4778H68.3739C65.2136 61.4778 62.6516 58.9159 62.6516 55.7556V53.408Z" fill="#91775F" stroke="#1B1713" stroke-width="0.29345"/>
<path d="M67.5946 60.0054C66.1599 59.4105 65.0124 58.263 64.4175 56.8283L64.6885 56.7159C64.4161 56.0589 64.2656 55.3383 64.2656 54.5818C64.2656 53.8252 64.4161 53.1046 64.6885 52.4476L64.4175 52.3352C65.0124 50.9006 66.1599 49.753 67.5946 49.1581L67.707 49.4292C68.364 49.1567 69.0846 49.0062 69.8411 49.0062H72.2254V48.7128H76.994V49.0062H81.7626V48.7128H86.5311V49.0062H88.622V51.6473H88.9154V57.5163H88.622V60.1573H86.5311V60.4508H81.7626V60.1573H76.994V60.4508H72.2254V60.1573H69.8411C69.0846 60.1573 68.364 60.0068 67.707 59.7344L67.5946 60.0054Z" stroke="#1B1713" stroke-width="0.586901" stroke-dasharray="5.87 5.87"/>
<circle cx="70.1346" cy="54.5817" r="2.05415" fill="#3F3F3F" stroke="#1B1713" stroke-width="0.586901"/>
<defs>
<filter id="filter0_f_5_11" x="10" y="13" width="73" height="24" filterUnits="userSpaceOnUse" color-interpolation-filters="sRGB">
<feFlood flood-opacity="0" result="BackgroundImageFix"/>
<feBlend mode="normal" in="SourceGraphic" in2="BackgroundImageFix" result="shape"/>
<feGaussianBlur stdDeviation="4" result="effect1_foregroundBlur_5_11"/>
</filter>
</defs>
</svg>
