<svg width="459" height="104" viewBox="0 0 459 104" fill="none" xmlns="http://www.w3.org/2000/svg">
<rect x="17.591" y="68.0096" width="72.4822" height="37.2682" transform="rotate(-68.5 17.591 68.0096)" fill="#548B56" stroke="#426143" stroke-width="0.880351"/>
<rect x="51.3886" y="65.0799" width="54.5817" height="3.81485" rx="1.90743" transform="rotate(-68.5 51.3886 65.0799)" fill="#486849"/>
<circle cx="39.3254" cy="56.0702" r="12.4716" transform="rotate(-68.5 39.3254 56.0702)" fill="#486849"/>
<circle cx="47.995" cy="10.4411" r="4.40175" transform="rotate(-68.5 47.995 10.4411)" fill="#486849"/>
<rect x="0.570872" y="69.7703" width="72.4822" height="37.2682" transform="rotate(-68.5 0.570872 69.7703)" fill="#548B56" stroke="#426143" stroke-width="0.880351"/>
<rect x="34.3684" y="66.8406" width="54.5817" height="3.81485" rx="1.90743" transform="rotate(-68.5 34.3684 66.8406)" fill="#486849"/>
<circle cx="22.3053" cy="57.8309" r="12.4716" transform="rotate(-68.5 22.3053 57.8309)" fill="#486849"/>
<circle cx="30.9749" cy="12.2019" r="4.40175" transform="rotate(-68.5 30.9749 12.2019)" fill="#486849"/>
<g opacity="0.2" filter="url(#filter0_f_5_13)">
<ellipse cx="46.5" cy="25" rx="28.5" ry="4" fill="black"/>
</g>
<path d="M0.29345 26.704C0.29345 26.0557 0.818978 25.5302 1.46725 25.5302H82.1661C85.2454 25.5302 87.7416 28.0265 87.7416 31.1058V78.0578C87.7416 81.1371 85.2454 83.6334 82.1661 83.6334H1.46725C0.818982 83.6334 0.29345 83.1078 0.29345 82.4596V26.704Z" fill="#56422F" stroke="#1B1713" stroke-width="0.586901"/>
<path d="M77.0516 80.4053V80.9922H71.518V80.4053H65.9844V80.9922H60.4507V80.4053H54.9171V80.9922H49.3835V80.4053H43.8498V80.9922H38.3162V80.4053H32.7826V80.9922H27.2489V80.4053H21.7153V80.9922H16.1817V80.4053H10.648V80.9922H5.11441V80.4053H2.9345V78.3512H2.3476V73.0691H2.9345V67.787H2.3476V62.5049H2.9345V57.2228H2.3476V51.9407H2.9345V46.6586H2.3476V41.3765H2.9345V36.0944H2.3476V30.8123H2.9345V28.7581H5.11441V28.1712H10.648V28.7581H16.1817V28.1712H21.7153V28.7581H27.2489V28.1712H32.7826V28.7581H38.3162V28.1712H43.8498V28.7581H49.3835V28.1712H54.9171V28.7581H60.4507V28.1712H65.9844V28.7581H71.518V28.1712H77.0516V28.7581H79.8185C80.5358 28.7581 81.2182 28.9008 81.8402 29.1587L82.065 28.6165C83.4997 29.2115 84.6472 30.359 85.2421 31.7936L84.7 32.0184C84.9579 32.6404 85.1006 33.3229 85.1006 34.0402V36.6079H85.6875V41.7433H85.1006V46.8787H85.6875V52.014H85.1006V57.1494H85.6875V62.2848H85.1006V67.4202H85.6875V72.5556H85.1006V75.1232C85.1006 75.8405 84.9579 76.523 84.7 77.145L85.2421 77.3698C84.6472 78.8044 83.4997 79.952 82.065 80.5469L81.8402 80.0048C81.2182 80.2627 80.5358 80.4053 79.8185 80.4053H77.0516Z" stroke="#1B1713" stroke-width="1.1738" stroke-dasharray="5.87 5.87"/>
<path d="M62.6516 53.408C62.6516 50.2477 65.2136 47.6857 68.3739 47.6857H88.9154C89.6447 47.6857 90.2359 48.2769 90.2359 49.0062V60.1573C90.2359 60.8866 89.6447 61.4779 88.9154 61.4779H68.3739C65.2136 61.4779 62.6516 58.9159 62.6516 55.7556V53.408Z" fill="#91775F" stroke="#1B1713" stroke-width="0.29345"/>
<path d="M67.5946 60.0054C66.1599 59.4105 65.0124 58.2629 64.4175 56.8283L64.6885 56.7159C64.4161 56.0589 64.2656 55.3383 64.2656 54.5817C64.2656 53.8252 64.4161 53.1046 64.6885 52.4476L64.4175 52.3352C65.0124 50.9005 66.1599 49.753 67.5946 49.1581L67.707 49.4291C68.364 49.1567 69.0846 49.0062 69.8411 49.0062H72.2254V48.7127H76.994V49.0062H81.7626V48.7127H86.5311V49.0062H88.622V51.6472H88.9154V57.5162H88.622V60.1573H86.5311V60.4507H81.7626V60.1573H76.994V60.4507H72.2254V60.1573H69.8411C69.0846 60.1573 68.364 60.0068 67.707 59.7343L67.5946 60.0054Z" stroke="#1B1713" stroke-width="0.586901" stroke-dasharray="5.87 5.87"/>
<circle cx="70.1346" cy="54.5817" r="2.05415" fill="#3F3F3F" stroke="#1B1713" stroke-width="0.586901"/>
<path d="M97.384 43.456H109.416V80H118.568V43.456H130.664V35.2H97.384V43.456ZM138.099 50.56H129.971V80H138.099V50.56ZM146.739 59.2L150.515 52.16C149.918 51.392 149.128 50.816 148.147 50.432C147.208 50.048 146.206 49.856 145.139 49.856C143.603 49.856 142.11 50.4107 140.659 51.52C139.208 52.5867 138.035 54.0373 137.139 55.872C136.243 57.664 135.795 59.7333 135.795 62.08L138.099 64.384C138.099 62.976 138.27 61.7813 138.611 60.8C138.995 59.776 139.55 58.9867 140.275 58.432C141 57.8773 141.875 57.6 142.899 57.6C143.752 57.6 144.456 57.7493 145.011 58.048C145.608 58.304 146.184 58.688 146.739 59.2ZM184.878 50.56H176.238L166.958 73.856L171.054 73.984L161.582 50.56H152.366L164.59 77.056L157.166 94.08H165.678L184.878 50.56ZM196.724 30.08H188.404V80H196.724V30.08ZM220.916 65.28C220.916 61.9947 220.255 59.2213 218.932 56.96C217.609 54.656 215.86 52.9067 213.684 51.712C211.551 50.5173 209.247 49.92 206.772 49.92C204.34 49.92 202.164 50.5387 200.244 51.776C198.367 53.0133 196.873 54.784 195.764 57.088C194.655 59.3493 194.1 62.08 194.1 65.28C194.1 68.4373 194.655 71.168 195.764 73.472C196.873 75.776 198.367 77.5467 200.244 78.784C202.164 80.0213 204.34 80.64 206.772 80.64C209.247 80.64 211.551 80.0427 213.684 78.848C215.86 77.6533 217.609 75.904 218.932 73.6C220.255 71.296 220.916 68.5227 220.916 65.28ZM212.34 65.28C212.34 67.0293 211.977 68.544 211.252 69.824C210.527 71.104 209.545 72.0853 208.308 72.768C207.113 73.4507 205.791 73.792 204.34 73.792C203.103 73.792 201.887 73.472 200.692 72.832C199.54 72.1493 198.58 71.168 197.812 69.888C197.087 68.608 196.724 67.072 196.724 65.28C196.724 63.488 197.087 61.952 197.812 60.672C198.58 59.392 199.54 58.432 200.692 57.792C201.887 57.1093 203.103 56.768 204.34 56.768C205.791 56.768 207.113 57.1093 208.308 57.792C209.545 58.4747 210.527 59.456 211.252 60.736C211.977 62.016 212.34 63.5307 212.34 65.28ZM240.984 80.64C244.525 80.64 247.555 79.9573 250.072 78.592C252.632 77.184 254.68 75.0933 256.216 72.32L248.984 70.08C248.131 71.488 247.043 72.5547 245.72 73.28C244.44 73.9627 242.883 74.304 241.048 74.304C239.427 74.304 238.04 73.9413 236.888 73.216C235.736 72.4907 234.861 71.4453 234.264 70.08C233.709 68.7147 233.432 67.0507 233.432 65.088C233.475 63.04 233.773 61.3333 234.328 59.968C234.925 58.56 235.757 57.5147 236.824 56.832C237.933 56.1067 239.299 55.744 240.92 55.744C242.243 55.744 243.395 56.0427 244.376 56.64C245.357 57.2373 246.104 58.048 246.616 59.072C247.171 60.096 247.448 61.3333 247.448 62.784C247.448 63.0827 247.363 63.4667 247.192 63.936C247.064 64.3627 246.915 64.704 246.744 64.96L248.984 62.016H229.848V67.136H256.216C256.259 66.88 256.28 66.5387 256.28 66.112C256.323 65.6853 256.344 65.28 256.344 64.896C256.344 61.7387 255.747 59.0507 254.552 56.832C253.357 54.5707 251.608 52.864 249.304 51.712C247.043 50.5173 244.291 49.92 241.048 49.92C237.805 49.92 234.989 50.56 232.6 51.84C230.211 53.0773 228.355 54.848 227.032 57.152C225.752 59.4133 225.112 62.1227 225.112 65.28C225.112 68.3947 225.752 71.104 227.032 73.408C228.355 75.6693 230.211 77.44 232.6 78.72C234.989 80 237.784 80.64 240.984 80.64ZM323.64 63.04L311.032 32.96L298.552 63.04L288.824 35.2H278.072L296.888 82.496L311.032 53.056L325.112 82.496L343.992 35.2H333.24L323.64 63.04ZM347.922 70.848C347.922 69.9947 348.114 69.2907 348.498 68.736C348.882 68.1387 349.479 67.6907 350.29 67.392C351.1 67.0507 352.146 66.88 353.426 66.88C355.004 66.88 356.498 67.0933 357.906 67.52C359.356 67.9467 360.658 68.5867 361.81 69.44V65.6C361.383 65.088 360.679 64.5547 359.698 64C358.716 63.4453 357.5 62.976 356.05 62.592C354.642 62.208 352.999 62.016 351.122 62.016C347.452 62.016 344.615 62.848 342.61 64.512C340.604 66.176 339.602 68.4373 339.602 71.296C339.602 73.3013 340.071 75.008 341.01 76.416C341.991 77.7813 343.271 78.8267 344.85 79.552C346.428 80.2773 348.135 80.64 349.97 80.64C351.762 80.64 353.468 80.32 355.09 79.68C356.754 79.04 358.098 78.08 359.122 76.8C360.188 75.52 360.722 73.9413 360.722 72.064L359.698 68.224C359.698 69.632 359.378 70.848 358.738 71.872C358.098 72.8533 357.266 73.6213 356.242 74.176C355.218 74.688 354.066 74.944 352.786 74.944C351.89 74.944 351.058 74.7947 350.29 74.496C349.564 74.1547 348.988 73.6853 348.562 73.088C348.135 72.448 347.922 71.7013 347.922 70.848ZM344.722 58.88C345.148 58.5813 345.81 58.2187 346.706 57.792C347.602 57.3653 348.668 57.0027 349.906 56.704C351.143 56.4053 352.444 56.256 353.81 56.256C354.706 56.256 355.516 56.3413 356.242 56.512C356.967 56.6827 357.586 56.96 358.098 57.344C358.652 57.728 359.058 58.2187 359.314 58.816C359.57 59.3707 359.698 60.0533 359.698 60.864V80H367.698V59.136C367.698 57.1307 367.143 55.4453 366.034 54.08C364.924 52.672 363.388 51.6053 361.426 50.88C359.463 50.1547 357.223 49.792 354.706 49.792C351.975 49.792 349.5 50.176 347.282 50.944C345.063 51.6693 343.186 52.4373 341.65 53.248L344.722 58.88ZM375.409 30.08V80H383.729V30.08H375.409ZM391.909 30.08V80H400.229V30.08H391.909ZM422.297 80.64C425.838 80.64 428.867 79.9573 431.385 78.592C433.945 77.184 435.993 75.0933 437.529 72.32L430.297 70.08C429.443 71.488 428.355 72.5547 427.033 73.28C425.753 73.9627 424.195 74.304 422.361 74.304C420.739 74.304 419.353 73.9413 418.201 73.216C417.049 72.4907 416.174 71.4453 415.577 70.08C415.022 68.7147 414.745 67.0507 414.745 65.088C414.787 63.04 415.086 61.3333 415.641 59.968C416.238 58.56 417.07 57.5147 418.137 56.832C419.246 56.1067 420.611 55.744 422.233 55.744C423.555 55.744 424.707 56.0427 425.689 56.64C426.67 57.2373 427.417 58.048 427.929 59.072C428.483 60.096 428.761 61.3333 428.761 62.784C428.761 63.0827 428.675 63.4667 428.505 63.936C428.377 64.3627 428.227 64.704 428.057 64.96L430.297 62.016H411.161V67.136H437.529C437.571 66.88 437.593 66.5387 437.593 66.112C437.635 65.6853 437.657 65.28 437.657 64.896C437.657 61.7387 437.059 59.0507 435.865 56.832C434.67 54.5707 432.921 52.864 430.617 51.712C428.355 50.5173 425.603 49.92 422.361 49.92C419.118 49.92 416.302 50.56 413.913 51.84C411.523 53.0773 409.667 54.848 408.345 57.152C407.065 59.4133 406.424 62.1227 406.424 65.28C406.424 68.3947 407.065 71.104 408.345 73.408C409.667 75.6693 411.523 77.44 413.913 78.72C416.302 80 419.097 80.64 422.297 80.64ZM440.133 50.56V57.536H458.309V50.56H440.133ZM445.189 40.32V80H453.189V40.32H445.189Z" fill="#212529"/>
<defs>
<filter id="filter0_f_5_13" x="10" y="13" width="73" height="24" filterUnits="userSpaceOnUse" color-interpolation-filters="sRGB">
<feFlood flood-opacity="0" result="BackgroundImageFix"/>
<feBlend mode="normal" in="SourceGraphic" in2="BackgroundImageFix" result="shape"/>
<feGaussianBlur stdDeviation="4" result="effect1_foregroundBlur_5_13"/>
</filter>
</defs>
</svg>
