<svg width="271" height="62" viewBox="0 0 271 62" fill="none" xmlns="http://www.w3.org/2000/svg">
<rect x="10.386" y="40.1538" width="42.7945" height="22.0037" transform="rotate(-68.5 10.386 40.1538)" fill="#548B56" stroke="#426143" stroke-width="0.519771"/>
<rect x="30.3406" y="38.4241" width="32.2258" height="2.25234" rx="1.12617" transform="rotate(-68.5 30.3406 38.4241)" fill="#486849"/>
<circle cx="23.2182" cy="33.1046" r="7.36343" transform="rotate(-68.5 23.2182 33.1046)" fill="#486849"/>
<circle cx="28.337" cy="6.16459" r="2.59886" transform="rotate(-68.5 28.337 6.16459)" fill="#486849"/>
<rect x="0.337051" y="41.1933" width="42.7945" height="22.0037" transform="rotate(-68.5 0.337051 41.1933)" fill="#548B56" stroke="#426143" stroke-width="0.519771"/>
<rect x="20.2916" y="39.4636" width="32.2258" height="2.25234" rx="1.12617" transform="rotate(-68.5 20.2916 39.4636)" fill="#486849"/>
<circle cx="13.1693" cy="34.1442" r="7.36343" transform="rotate(-68.5 13.1693 34.1442)" fill="#486849"/>
<circle cx="18.288" cy="7.20414" r="2.59886" transform="rotate(-68.5 18.288 7.20414)" fill="#486849"/>
<g opacity="0.2" filter="url(#filter0_f_10_157)">
<ellipse cx="27.4542" cy="14.7604" rx="16.8268" ry="2.36166" fill="black"/>
</g>
<path d="M0.173257 15.7664C0.173257 15.3837 0.483537 15.0734 0.866286 15.0734H48.512C50.3301 15.0734 51.8039 16.5472 51.8039 18.3653V46.0864C51.8039 47.9045 50.3301 49.3783 48.512 49.3783H0.866288C0.483538 49.3783 0.173257 49.068 0.173257 48.6853V15.7664Z" fill="#56422F" stroke="#1B1713" stroke-width="0.346514"/>
<path d="M45.4924 47.4724V47.8189H42.2252V47.4724H38.9581V47.8189H35.691V47.4724H32.4238V47.8189H29.1567V47.4724H25.8896V47.8189H22.6224V47.4724H19.3553V47.8189H16.0882V47.4724H12.821V47.8189H9.55388V47.4724H6.28675V47.8189H3.01961V47.4724H1.73256V46.2596H1.38605V43.141H1.73256V40.0223H1.38605V36.9037H1.73256V33.7851H1.38605V30.6665H1.73256V27.5478H1.38605V24.4292H1.73256V21.3106H1.38605V18.1919H1.73256V16.9791H3.01962V16.6326H6.28675V16.9791H9.55389V16.6326H12.821V16.9791H16.0882V16.6326H19.3553V16.9791H22.6224V16.6326H25.8896V16.9791H29.1567V16.6326H32.4238V16.9791H35.691V16.6326H38.9581V16.9791H42.2252V16.6326H45.4924V16.9791H47.1259C47.5494 16.9791 47.9524 17.0634 48.3196 17.2157L48.4523 16.8956C49.2994 17.2468 49.9769 17.9243 50.3281 18.7714L50.008 18.9041C50.1603 19.2713 50.2445 19.6743 50.2445 20.0978V21.6138H50.5911V24.6458H50.2445V27.6778H50.5911V30.7098H50.2445V33.7418H50.5911V36.7738H50.2445V39.8058H50.5911V42.8378H50.2445V44.3538C50.2445 44.7773 50.1603 45.1802 50.008 45.5474L50.3281 45.6802C49.9769 46.5272 49.2994 47.2047 48.4523 47.556L48.3196 47.2359C47.9524 47.3882 47.5494 47.4724 47.1259 47.4724H45.4924Z" stroke="#1B1713" stroke-width="0.693029" stroke-dasharray="3.47 3.47"/>
<path d="M36.9904 31.5328C36.9904 29.6669 38.503 28.1543 40.3689 28.1543H52.4969C52.9275 28.1543 53.2765 28.5034 53.2765 28.934V35.5177C53.2765 35.9483 52.9275 36.2974 52.4969 36.2974H40.3689C38.503 36.2974 36.9904 34.7848 36.9904 32.9189V31.5328Z" fill="#91775F" stroke="#1B1713" stroke-width="0.173257"/>
<path d="M39.9087 35.428C39.0617 35.0768 38.3842 34.3993 38.033 33.5522L38.193 33.4859C38.0321 33.098 37.9433 32.6725 37.9433 32.2258C37.9433 31.7792 38.0321 31.3537 38.193 30.9658L38.033 30.8994C38.3842 30.0524 39.0617 29.3749 39.9087 29.0236L39.9751 29.1837C40.363 29.0228 40.7885 28.9339 41.2352 28.9339H42.6429V28.7607H45.4583V28.9339H48.2737V28.7607H51.0892V28.9339H52.3236V30.4933H52.4969V33.9584H52.3236V35.5177H51.0892V35.691H48.2737V35.5177H45.4583V35.691H42.6429V35.5177H41.2352C40.7885 35.5177 40.363 35.4288 39.9751 35.268L39.9087 35.428Z" stroke="#1B1713" stroke-width="0.346514" stroke-dasharray="3.47 3.47"/>
<circle cx="41.4084" cy="32.2258" r="1.2128" fill="#3F3F3F" stroke="#1B1713" stroke-width="0.346514"/>
<path d="M57.4969 26.5088H64.6007V48.0849H70.0042V26.5088H77.1458V21.6344H57.4969V26.5088ZM81.5356 30.7031H76.7367V48.0849H81.5356V30.7031ZM86.6367 35.8043L88.8661 31.6478C88.5135 31.1944 88.0474 30.8543 87.468 30.6276C86.9138 30.4009 86.3219 30.2875 85.6921 30.2875C84.7852 30.2875 83.9035 30.615 83.047 31.2699C82.1905 31.8997 81.4978 32.7562 80.9688 33.8394C80.4398 34.8974 80.1753 36.1192 80.1753 37.5047L81.5356 38.865C81.5356 38.0337 81.6363 37.3284 81.8379 36.749C82.0646 36.1444 82.3921 35.6784 82.8203 35.3509C83.2486 35.0234 83.765 34.8597 84.3696 34.8597C84.8734 34.8597 85.289 34.9478 85.6165 35.1242C85.9692 35.2753 86.3093 35.502 86.6367 35.8043ZM109.155 30.7031H104.053L98.5743 44.4574L100.993 44.533L95.4003 30.7031H89.959L97.1762 46.3468L92.793 56.398H97.8186L109.155 30.7031ZM116.149 18.6115H111.236V48.0849H116.149V18.6115ZM130.432 39.394C130.432 37.4543 130.041 35.8169 129.261 34.4818C128.48 33.1215 127.447 32.0886 126.162 31.3833C124.902 30.678 123.542 30.3253 122.081 30.3253C120.645 30.3253 119.36 30.6905 118.227 31.4211C117.118 32.1516 116.237 33.1971 115.582 34.5574C114.927 35.8925 114.599 37.5047 114.599 39.394C114.599 41.2582 114.927 42.8704 115.582 44.2307C116.237 45.591 117.118 46.6364 118.227 47.367C119.36 48.0975 120.645 48.4628 122.081 48.4628C123.542 48.4628 124.902 48.1101 126.162 47.4048C127.447 46.6994 128.48 45.6666 129.261 44.3063C130.041 42.946 130.432 41.3086 130.432 39.394ZM125.368 39.394C125.368 40.4269 125.154 41.3211 124.726 42.0769C124.298 42.8326 123.718 43.412 122.988 43.8151C122.283 44.2181 121.502 44.4196 120.645 44.4196C119.915 44.4196 119.197 44.2307 118.491 43.8528C117.811 43.4498 117.244 42.8704 116.791 42.1147C116.363 41.3589 116.149 40.4521 116.149 39.394C116.149 38.336 116.363 37.4291 116.791 36.6734C117.244 35.9177 117.811 35.3509 118.491 34.973C119.197 34.57 119.915 34.3684 120.645 34.3684C121.502 34.3684 122.283 34.57 122.988 34.973C123.718 35.3761 124.298 35.9555 124.726 36.7112C125.154 37.4669 125.368 38.3612 125.368 39.394ZM142.28 48.4628C144.371 48.4628 146.16 48.0597 147.646 47.2536C149.157 46.4223 150.367 45.188 151.274 43.5506L147.004 42.228C146.5 43.0593 145.857 43.6891 145.077 44.1173C144.321 44.5204 143.401 44.7219 142.318 44.7219C141.361 44.7219 140.542 44.5078 139.862 44.0796C139.182 43.6513 138.665 43.0341 138.313 42.228C137.985 41.4219 137.822 40.4395 137.822 39.2807C137.847 38.0715 138.023 37.0639 138.351 36.2578C138.703 35.4265 139.194 34.8093 139.824 34.4062C140.479 33.978 141.285 33.7638 142.243 33.7638C143.023 33.7638 143.704 33.9402 144.283 34.2929C144.862 34.6455 145.303 35.1242 145.606 35.7287C145.933 36.3333 146.097 37.0639 146.097 37.9204C146.097 38.0967 146.046 38.3234 145.946 38.6005C145.87 38.8524 145.782 39.054 145.681 39.2051L147.004 37.4669H135.705V40.4898H151.274C151.299 40.3387 151.311 40.1372 151.311 39.8853C151.336 39.6334 151.349 39.394 151.349 39.1673C151.349 37.3032 150.996 35.7162 150.291 34.4062C149.586 33.0711 148.553 32.0635 147.193 31.3833C145.857 30.678 144.233 30.3253 142.318 30.3253C140.404 30.3253 138.741 30.7031 137.33 31.4589C135.92 32.1894 134.824 33.2348 134.043 34.5952C133.287 35.9303 132.909 37.5299 132.909 39.394C132.909 41.233 133.287 42.8326 134.043 44.1929C134.824 45.528 135.92 46.5735 137.33 47.3292C138.741 48.0849 140.391 48.4628 142.28 48.4628ZM191.081 38.0715L183.637 20.3119L176.269 38.0715L170.525 21.6344H164.177L175.287 49.5586L183.637 32.1768L191.95 49.5586L203.097 21.6344H196.749L191.081 38.0715ZM205.418 42.6815C205.418 42.1776 205.531 41.762 205.758 41.4345C205.985 41.0818 206.337 40.8173 206.816 40.641C207.294 40.4395 207.912 40.3387 208.667 40.3387C209.599 40.3387 210.481 40.4647 211.312 40.7166C212.169 40.9685 212.937 41.3463 213.617 41.8502V39.583C213.365 39.2807 212.95 38.9658 212.37 38.6383C211.791 38.3108 211.073 38.0337 210.217 37.807C209.385 37.5803 208.415 37.4669 207.307 37.4669C205.141 37.4669 203.465 37.9581 202.281 38.9406C201.097 39.923 200.505 41.2582 200.505 42.946C200.505 44.1299 200.783 45.1376 201.337 45.9689C201.916 46.775 202.672 47.3922 203.604 47.8204C204.536 48.2487 205.544 48.4628 206.627 48.4628C207.685 48.4628 208.693 48.2739 209.65 47.896C210.632 47.5181 211.426 46.9513 212.03 46.1956C212.66 45.4399 212.975 44.5078 212.975 43.3994L212.37 41.1322C212.37 41.9635 212.181 42.6815 211.804 43.286C211.426 43.8654 210.935 44.3189 210.33 44.6464C209.725 44.9487 209.045 45.0998 208.289 45.0998C207.76 45.0998 207.269 45.0116 206.816 44.8353C206.388 44.6338 206.047 44.3567 205.796 44.004C205.544 43.6261 205.418 43.1853 205.418 42.6815ZM203.528 35.6154C203.78 35.439 204.171 35.2249 204.7 34.973C205.229 34.7211 205.859 34.507 206.589 34.3306C207.32 34.1543 208.088 34.0661 208.894 34.0661C209.423 34.0661 209.902 34.1165 210.33 34.2173C210.758 34.3181 211.123 34.4818 211.426 34.7085C211.753 34.9352 211.993 35.2249 212.144 35.5776C212.295 35.9051 212.37 36.3081 212.37 36.7868V48.0849H217.094V35.7665C217.094 34.5826 216.766 33.5875 216.111 32.7814C215.456 31.9501 214.549 31.3203 213.391 30.8921C212.232 30.4638 210.909 30.2497 209.423 30.2497C207.811 30.2497 206.35 30.4764 205.04 30.9299C203.73 31.3581 202.622 31.8115 201.715 32.2902L203.528 35.6154ZM221.646 18.6115V48.0849H226.559V18.6115H221.646ZM231.388 18.6115V48.0849H236.3V18.6115H231.388ZM249.33 48.4628C251.421 48.4628 253.209 48.0597 254.695 47.2536C256.207 46.4223 257.416 45.188 258.323 43.5506L254.053 42.228C253.549 43.0593 252.907 43.6891 252.126 44.1173C251.37 44.5204 250.451 44.7219 249.368 44.7219C248.41 44.7219 247.592 44.5078 246.911 44.0796C246.231 43.6513 245.715 43.0341 245.362 42.228C245.035 41.4219 244.871 40.4395 244.871 39.2807C244.896 38.0715 245.072 37.0639 245.4 36.2578C245.753 35.4265 246.244 34.8093 246.874 34.4062C247.529 33.978 248.335 33.7638 249.292 33.7638C250.073 33.7638 250.753 33.9402 251.332 34.2929C251.912 34.6455 252.353 35.1242 252.655 35.7287C252.982 36.3333 253.146 37.0639 253.146 37.9204C253.146 38.0967 253.096 38.3234 252.995 38.6005C252.919 38.8524 252.831 39.054 252.731 39.2051L254.053 37.4669H242.755V40.4898H258.323C258.348 40.3387 258.361 40.1372 258.361 39.8853C258.386 39.6334 258.398 39.394 258.398 39.1673C258.398 37.3032 258.046 35.7162 257.34 34.4062C256.635 33.0711 255.602 32.0635 254.242 31.3833C252.907 30.678 251.282 30.3253 249.368 30.3253C247.453 30.3253 245.79 30.7031 244.38 31.4589C242.969 32.1894 241.873 33.2348 241.092 34.5952C240.337 35.9303 239.959 37.5299 239.959 39.394C239.959 41.233 240.337 42.8326 241.092 44.1929C241.873 45.528 242.969 46.5735 244.38 47.3292C245.79 48.0849 247.44 48.4628 249.33 48.4628ZM259.86 30.7031V34.8219H270.592V30.7031H259.86ZM262.845 24.6573V48.0849H267.569V24.6573H262.845Z" fill="#F8F9FA"/>
<defs>
<filter id="filter0_f_10_157" x="5.90413" y="7.6754" width="43.1002" height="14.1699" filterUnits="userSpaceOnUse" color-interpolation-filters="sRGB">
<feFlood flood-opacity="0" result="BackgroundImageFix"/>
<feBlend mode="normal" in="SourceGraphic" in2="BackgroundImageFix" result="shape"/>
<feGaussianBlur stdDeviation="2.36166" result="effect1_foregroundBlur_10_157"/>
</filter>
</defs>
</svg>
